# xmcd
#
# Track frame offsets:
#	150
#	12700
#	30650
#	44367
#	59527
#	74610
#	93975
#	109605
#	127472
#	142905
#	158555
#	172815
#	189112
#	208015
#	221112
#	234557
#	253017
#
# Disc length: 3582 seconds
#
# Revision: 1
# Processed by: cddbd v1.5.1PL0 Copyright (c) Steve Scherf et al.
# Submitted via: EasyCDDAExtractor 6.0.0.1
#
DISCID=f70dfc11
DTITLE=Leif Kerstein and Winchesters - Winchester # 2
DYEAR=1997
DGENRE=Country
TTITLE0=I've Got a Tiger By The Tail
TTITLE1=Don't Be Angry
TTITLE2=Till The Next Time I'm in Town
TTITLE3=Green Green Grass Of Home
TTITLE4=Take Me Home Country Roads
TTITLE5=Would You Lay With Me
TTITLE6=Lonesome Fugetive
TTITLE7=Country Polka
TTITLE8=The Girl From Yesterday
TTITLE9=Freinds In Low Places
TTITLE10=Ruby, Don't Take Your Love To Town
TTITLE11=Jambalaya
TTITLE12=I Love You Because
TTITLE13=Winchester # 2
TTITLE14=Tequila Sunrise
TTITLE15=Game People Play
TTITLE16=Blue Eyes Crying In The Rain
EXTD=
EXTT0=
EXTT1=
EXTT2=
EXTT3=
EXTT4=
EXTT5=
EXTT6=
EXTT7=
EXTT8=
EXTT9=
EXTT10=
EXTT11=
EXTT12=
EXTT13=
EXTT14=
EXTT15=
EXTT16=
PLAYORDER=
